<svg width="1280" height="320" viewBox="0 0 1280 320" xmlns="http://www.w3.org/2000/svg">
  <rect width="1280" height="320" fill="#0d1117"/>
  <rect x="0" y="0" width="1280" height="320" fill="none" stroke="#1f2937" stroke-width="1"/>

  <!-- subtle grid dots -->
  <g fill="#1a2230">
    <circle cx="60" cy="60" r="1.5"/><circle cx="120" cy="60" r="1.5"/><circle cx="180" cy="60" r="1.5"/>
    <circle cx="60" cy="260" r="1.5"/><circle cx="120" cy="260" r="1.5"/><circle cx="180" cy="260" r="1.5"/>
    <circle cx="1100" cy="60" r="1.5"/><circle cx="1160" cy="60" r="1.5"/><circle cx="1220" cy="60" r="1.5"/>
    <circle cx="1100" cy="260" r="1.5"/><circle cx="1160" cy="260" r="1.5"/><circle cx="1220" cy="260" r="1.5"/>
  </g>

  <!-- three route icons: VPN / Tor / Proxy -->
  <g stroke="#2dd4bf" stroke-width="2" fill="none">
    <circle cx="220" cy="150" r="26"/>
    <path d="M208 150 L217 159 L233 141" stroke-linecap="round" stroke-linejoin="round"/>
  </g>
  <text x="220" y="205" text-anchor="middle" fill="#5eead4" font-family="Menlo, Consolas, monospace" font-size="13">VPN</text>

  <g stroke="#a78bfa" stroke-width="2" fill="none">
    <circle cx="220" cy="150" r="26" opacity="0"/>
  </g>

  <line x1="256" y1="150" x2="1000" y2="150" stroke="#233042" stroke-width="1.5" stroke-dasharray="4 5"/>

  <circle cx="420" cy="150" r="22" fill="none" stroke="#a78bfa" stroke-width="2"/>
  <circle cx="420" cy="150" r="10" fill="none" stroke="#a78bfa" stroke-width="1.5"/>
  <text x="420" y="205" text-anchor="middle" fill="#c4b5fd" font-family="Menlo, Consolas, monospace" font-size="13">TOR</text>

  <rect x="598" y="128" width="44" height="44" rx="6" fill="none" stroke="#fb923c" stroke-width="2"/>
  <line x1="608" y1="150" x2="632" y2="150" stroke="#fb923c" stroke-width="2"/>
  <text x="620" y="205" text-anchor="middle" fill="#fdba74" font-family="Menlo, Consolas, monospace" font-size="13">PROXY</text>

  <!-- title block -->
  <text x="640" y="120" text-anchor="middle" fill="#f1f5f9" font-family="Menlo, Consolas, monospace" font-size="64" font-weight="bold" letter-spacing="6">NYX</text>
  <text x="640" y="150" text-anchor="middle" fill="#64748b" font-family="Menlo, Consolas, monospace" font-size="15" letter-spacing="2">PRIVACY-FIRST ROUTER FOR RASPBERRY PI</text>
  <text x="640" y="178" text-anchor="middle" fill="#475569" font-family="Menlo, Consolas, monospace" font-size="12">VPN rotation · Tor · always-on proxy · fail-closed kill switch</text>

  <!-- bottom hairline -->
  <line x1="60" y1="260" x2="1220" y2="260" stroke="#1f2937" stroke-width="1"/>
  <text x="640" y="290" text-anchor="middle" fill="#334155" font-family="Menlo, Consolas, monospace" font-size="11" letter-spacing="1">RASPBERRY PI CM4 · WIREGUARD · REDSOCKS · IPTABLES</text>
</svg>
